# xmcd
#
# Track frame offsets:
#	150
#	17550
#	36817
#	51528
#	70894
#	91934
#	108759
#	123848
#	147707
#	164727
#	183909
#	200490
#	221396
#	239013
#
# Disc length: 3452 seconds
#
# Revision: 0
# Processed by: cddbd v1.5.2PL0 Copyright (c) Steve Scherf et al.
# Submitted via: EasyCDDAExtractor 11.0.2.1
#
DISCID=cd0d7a0e
DTITLE=Conya Doss - still...
DYEAR=2008
DGENRE=Neo Soul
TTITLE0=Common Ground
TTITLE1=Can't Stop
TTITLE2=Something 2Nite
TTITLE3=What I'd Do
TTITLE4=It's Over
TTITLE5=Right on Time
TTITLE6=How About Us
TTITLE7=I Miss You
TTITLE8=Emotions
TTITLE9=Turn it Up
TTITLE10=Come Over
TTITLE11=Let Me Love You
TTITLE12=Message
TTITLE13=Ride
EXTD=
EXTT0=
EXTT1=
EXTT2=
EXTT3=
EXTT4=
EXTT5=
EXTT6=
EXTT7=
EXTT8=
EXTT9=
EXTT10=
EXTT11=
EXTT12=
EXTT13=
PLAYORDER=
